<?xml version="1.0" standalone="no"?>
<!DOCTYPE svg PUBLIC "-//W3C//DTD SVG 20010904//EN"
 "http://www.w3.org/TR/2001/REC-SVG-20010904/DTD/svg10.dtd">
<svg version="1.0" xmlns="http://www.w3.org/2000/svg"
 width="411.000000pt" height="411.000000pt" viewBox="0 0 411.000000 411.000000"
 preserveAspectRatio="xMidYMid meet">
<metadata>
Created by potrace 1.14, written by Peter Selinger 2001-2017
</metadata>
<g transform="translate(0.000000,411.000000) scale(0.100000,-0.100000)"
fill="#000000" stroke="none">
<path d="M2268 4091 c-16 -16 -16 -17 3 -18 18 -2 72 -36 105 -68 6 -5 25 -21
42 -34 18 -13 32 -31 32 -39 0 -9 3 -13 6 -9 8 8 54 -38 54 -54 0 -7 3 -10 6
-6 4 3 13 -1 21 -9 12 -12 30 -14 85 -9 55 5 75 3 95 -10 33 -22 22 -30 -44
-32 -66 -2 -77 -10 -63 -47 9 -25 80 -104 80 -90 0 3 14 -4 30 -16 17 -12 30
-19 30 -15 0 3 9 1 20 -5 11 -6 36 -11 55 -12 19 -1 35 -5 35 -10 0 -4 6 -8
14 -8 12 0 26 -20 26 -36 0 -6 -54 1 -67 9 -6 4 -24 8 -40 9 -15 1 -31 7 -35
13 -5 6 -8 5 -8 -3 0 -7 -5 -10 -10 -7 -6 3 -19 4 -29 0 -15 -4 -18 -12 -15
-33 3 -14 10 -32 16 -39 6 -7 7 -13 4 -13 -4 0 2 -10 13 -22 11 -11 18 -25 15
-30 -3 -4 2 -8 10 -8 9 0 16 -7 16 -17 0 -9 3 -14 6 -11 3 4 18 -6 32 -21 15
-15 35 -30 45 -34 9 -3 17 -11 17 -16 0 -5 8 -7 19 -4 10 3 22 0 25 -6 4 -5
13 -8 21 -4 10 3 15 -1 15 -13 0 -16 2 -17 10 -4 8 12 10 11 10 -7 0 -13 -6
-24 -12 -24 -23 -2 -53 3 -58 10 -3 3 -12 8 -20 10 -8 2 -33 9 -55 16 -22 7
-51 11 -64 8 -29 -4 -53 -33 -40 -49 5 -6 6 -14 2 -17 -3 -4 2 -17 13 -29 12
-13 13 -18 4 -13 -13 8 -13 7 0 -10 56 -72 166 -165 195 -165 12 0 15 -9 13
-35 -1 -19 -8 -37 -14 -39 -7 -3 -38 19 -68 47 -81 76 -86 79 -102 73 -7 -3
-14 -1 -14 4 0 19 -46 -12 -56 -38 -12 -32 -10 -142 2 -151 5 -3 10 -13 12
-21 7 -32 42 -96 61 -109 11 -8 18 -18 15 -23 -3 -4 0 -8 7 -8 6 0 20 -9 30
-21 17 -19 17 -23 3 -45 -13 -19 -20 -22 -35 -13 -10 5 -19 6 -19 2 0 -8 -25
15 -26 25 -2 15 -18 47 -26 53 -5 3 -10 15 -13 27 -8 42 -50 105 -74 110 -7 1
-20 -6 -30 -17 -45 -54 -50 -61 -43 -61 4 0 0 -5 -8 -10 -13 -9 -13 -10 0 -10
12 0 13 -2 1 -9 -8 -5 -26 -4 -46 5 -18 7 -35 10 -39 7 -3 -4 -6 -1 -6 5 0 7
-3 11 -7 10 -5 -1 -19 4 -31 11 -13 7 -26 10 -30 7 -3 -3 -16 1 -29 9 -13 9
-23 13 -23 9 0 -4 -7 -1 -15 6 -8 6 -18 9 -24 6 -5 -4 -15 -1 -23 6 -7 7 -20
14 -28 15 -42 6 -110 27 -110 34 0 5 -7 6 -15 3 -8 -4 -15 -2 -15 3 0 5 -6 10
-12 11 -7 0 -25 3 -40 6 -16 4 -28 2 -28 -3 0 -5 -8 -8 -17 -6 -10 1 -22 -1
-28 -5 -14 -10 -66 -24 -87 -23 -10 0 -18 -4 -18 -8 0 -5 -10 -9 -22 -9 -13
-1 -34 -7 -47 -14 -14 -8 -31 -12 -38 -9 -7 3 -13 -1 -13 -8 0 -7 -3 -10 -6
-6 -3 3 -25 -1 -47 -10 -23 -8 -49 -16 -57 -18 -8 -2 -38 -12 -66 -22 l-50
-20 -2 21 c0 11 -6 22 -12 24 -5 2 -10 8 -10 13 0 15 -47 59 -62 59 -13 0 -50
-52 -48 -66 1 -4 -4 -10 -12 -15 -7 -5 -13 -12 -14 -16 -2 -26 -17 -63 -25
-63 -5 0 -8 -3 -8 -7 3 -19 -2 -36 -8 -30 -3 4 -17 0 -31 -9 -29 -19 -51 -12
-49 16 2 24 72 101 83 91 4 -3 4 2 1 12 -4 9 -3 17 1 17 7 0 36 58 49 100 12
41 11 123 -3 151 -14 28 -43 45 -53 32 -3 -5 -13 -8 -21 -8 -8 0 -20 -4 -26
-10 -6 -6 -34 -31 -62 -55 -28 -24 -49 -46 -47 -50 7 -12 -29 -6 -37 5 -18 25
-8 57 22 68 17 6 30 15 30 20 0 4 4 6 9 3 5 -3 11 1 15 9 3 8 13 15 21 15 9 0
14 4 10 9 -3 5 4 12 15 16 11 4 27 19 35 34 8 16 21 31 30 35 8 3 14 9 13 13
-1 4 3 18 10 31 7 12 10 22 6 22 -3 0 -1 6 5 14 8 10 9 16 1 21 -6 3 -8 10 -5
15 17 28 -80 32 -130 6 -17 -9 -38 -16 -47 -16 -10 0 -18 -4 -18 -8 0 -16 -45
-5 -48 11 -3 17 35 39 70 41 9 1 23 7 29 14 7 6 17 12 21 12 10 0 45 29 72 59
12 13 27 29 34 37 6 7 12 17 12 22 0 5 7 15 15 22 8 7 12 16 9 21 -3 5 -1 9 3
9 5 0 9 10 11 23 1 17 -6 26 -27 34 -16 6 -33 7 -38 3 -4 -5 -24 -11 -43 -13
-19 -3 -35 -6 -35 -7 0 -1 -17 -3 -37 -6 -35 -3 -37 -2 -26 16 16 24 46 37
108 44 33 4 90 28 90 38 0 6 3 8 7 5 3 -4 28 16 55 45 33 36 45 55 38 63 -5 7
-6 16 -2 20 4 5 -1 5 -10 2 -10 -4 -18 -3 -18 2 0 4 -22 6 -48 4 -39 -3 -49
-1 -49 11 0 8 4 13 9 10 4 -3 8 1 8 9 0 12 17 14 85 12 l85 -2 34 38 c19 20
37 35 40 31 3 -3 6 0 6 7 0 12 23 41 33 41 2 0 25 19 51 43 26 23 65 52 87 64
22 11 37 23 32 26 -22 12 -259 4 -311 -11 -56 -16 -120 -69 -124 -102 0 -8 -2
-20 -2 -27 -1 -6 -4 -15 -8 -18 -4 -4 -4 -13 -1 -21 3 -8 0 -14 -7 -14 -6 0
-9 -4 -6 -9 3 -5 -1 -12 -10 -15 -8 -3 -13 -10 -10 -14 3 -5 -1 -9 -7 -9 -9 0
-12 18 -11 61 3 75 -7 91 -45 72 -82 -44 -128 -136 -129 -259 0 -47 3 -65 11
-61 7 3 4 -1 -5 -9 -10 -8 -15 -16 -12 -19 2 -3 -2 -8 -10 -11 -11 -4 -19 7
-30 41 -9 26 -17 52 -17 57 -2 14 -31 32 -51 32 -20 0 -54 -74 -63 -137 -1
-14 -4 -27 -5 -30 -6 -16 3 -106 11 -108 5 -2 6 -8 3 -13 -3 -6 1 -18 9 -27 8
-9 18 -27 21 -39 4 -13 12 -23 17 -23 6 0 16 -6 23 -12 16 -17 27 -58 14 -58
-5 0 -6 -4 -3 -10 13 -21 -8 -9 -27 15 -11 14 -26 25 -34 25 -8 0 -14 3 -14 8
0 9 -59 36 -82 38 -10 1 -14 -4 -11 -12 3 -8 1 -14 -4 -14 -5 0 -10 -12 -11
-27 0 -16 -2 -35 -2 -43 -1 -8 1 -26 5 -40 4 -14 8 -33 8 -42 1 -10 5 -18 9
-18 4 0 8 -7 8 -15 0 -9 15 -30 32 -48 18 -17 32 -35 30 -40 -1 -5 2 -6 8 -2
5 3 10 1 10 -4 0 -6 3 -10 8 -9 20 7 72 -52 72 -82 0 -12 -51 18 -63 37 -4 7
-12 13 -18 13 -5 0 -28 9 -49 19 -23 11 -42 15 -46 10 -3 -5 -9 -7 -13 -5 -16
10 -43 -58 -45 -114 -2 -50 2 -65 26 -100 15 -22 28 -45 28 -50 0 -6 4 -10 10
-10 5 0 21 -11 35 -25 14 -14 25 -23 25 -19 0 3 7 1 15 -6 8 -6 19 -9 25 -5 5
3 10 1 10 -5 0 -7 6 -10 14 -7 8 3 17 3 21 -1 3 -4 21 -8 38 -10 18 -1 39 -3
47 -4 16 -2 59 -38 44 -38 -5 0 -2 -5 6 -10 24 -16 -6 -12 -48 6 -35 15 -76
23 -147 27 -21 1 -30 -3 -30 -13 0 -8 -4 -18 -10 -22 -6 -5 -5 -8 2 -8 7 0 10
-7 7 -15 -4 -8 -2 -15 3 -15 5 0 10 -6 11 -12 3 -40 29 -88 62 -118 10 -8 20
-35 23 -60 3 -25 11 -58 18 -75 7 -16 11 -34 10 -38 0 -4 4 -18 11 -30 11 -20
14 -35 21 -92 1 -11 7 -23 12 -27 7 -5 6 -8 -1 -8 -5 0 -10 -15 -9 -32 0 -18
-3 -46 -8 -63 -4 -16 -9 -35 -11 -41 -1 -7 -7 -18 -13 -25 -6 -8 -9 -22 -8
-31 2 -10 -1 -18 -6 -18 -6 0 -8 -4 -4 -9 3 -5 -1 -16 -9 -24 -8 -8 -13 -17
-10 -20 3 -2 -1 -16 -7 -31 l-12 -26 -21 22 c-12 13 -20 26 -19 30 2 4 -6 9
-16 13 -11 3 -22 12 -25 20 -3 8 -14 15 -25 15 -11 0 -23 5 -26 10 -12 19 -63
11 -70 -10 -3 -11 -11 -20 -16 -20 -6 0 -7 -4 -4 -10 3 -5 1 -10 -4 -10 -6 0
-11 -7 -11 -15 0 -8 -5 -15 -11 -15 -5 0 -8 -4 -4 -9 3 -5 -1 -16 -9 -24 -8
-8 -12 -17 -9 -21 4 -3 1 -6 -6 -6 -7 0 -9 -4 -6 -10 3 -5 1 -10 -4 -10 -6 0
-10 -3 -9 -7 3 -16 -29 -73 -37 -66 -4 5 -5 0 -2 -9 4 -10 3 -18 -2 -18 -13 0
-6 -36 10 -52 7 -8 35 -20 61 -27 43 -12 58 -21 105 -61 7 -5 17 -10 23 -10 5
0 10 -7 10 -15 0 -8 -5 -15 -10 -15 -6 0 -9 -3 -8 -7 3 -11 -34 -87 -46 -95
-6 -4 -7 -8 -3 -8 9 0 -23 -61 -38 -72 -5 -4 -6 -8 -1 -8 5 0 3 -7 -4 -15 -12
-15 -5 -55 11 -55 10 0 -10 -40 -25 -51 -5 -4 -5 -12 -2 -18 4 -6 3 -10 -3 -9
-6 2 -24 -19 -39 -47 -15 -27 -30 -51 -34 -53 -5 -2 -8 -10 -8 -18 0 -8 -4
-14 -10 -14 -5 0 -10 -9 -10 -21 0 -11 4 -18 9 -15 20 12 20 -28 0 -55 -11
-16 -17 -29 -12 -29 4 0 1 -6 -8 -13 -14 -11 -24 -30 -28 -49 0 -5 -10 -17
-21 -28 -12 -12 -18 -25 -15 -29 2 -5 -2 -11 -10 -15 -8 -3 -15 -12 -15 -21 0
-8 -5 -15 -10 -15 -6 0 -5 -8 2 -19 7 -11 16 -17 20 -15 4 3 8 1 8 -4 0 -5 9
-12 19 -15 18 -4 19 -9 9 -43 -7 -22 -18 -46 -25 -55 -7 -9 -10 -19 -7 -22 4
-4 2 -13 -4 -20 -7 -8 -9 -17 -5 -20 3 -4 1 -7 -6 -7 -7 0 -10 -4 -6 -9 3 -5
0 -13 -6 -16 -5 -4 -8 -13 -5 -21 3 -8 1 -14 -5 -14 -6 0 -8 -4 -5 -9 4 -5 0
-11 -6 -14 -19 -7 4 -41 31 -45 11 -2 21 -8 21 -13 0 -5 9 -9 19 -9 11 0 26
-7 34 -15 8 -8 17 -11 21 -8 3 3 12 1 19 -5 8 -7 17 -9 20 -5 4 3 7 1 7 -6 0
-7 4 -10 9 -6 5 3 12 1 16 -5 3 -5 15 -10 26 -10 10 0 19 -4 19 -8 0 -4 8 -8
18 -9 31 -2 46 -8 60 -21 8 -7 18 -10 23 -6 6 3 15 1 22 -4 10 -8 39 -18 82
-27 6 -2 35 -10 66 -19 31 -9 66 -19 78 -21 11 -3 29 -7 38 -9 82 -20 108 -24
114 -20 4 2 9 0 11 -5 1 -5 23 -12 48 -15 25 -2 45 -5 45 -7 0 -1 14 -3 30 -4
17 -2 30 -4 30 -5 0 -1 11 -3 25 -4 88 -11 136 -20 147 -28 7 -6 14 -5 18 2 3
6 11 8 16 5 13 -9 307 -27 414 -26 8 0 259 11 305 13 8 0 21 5 28 11 8 6 12 6
12 -2 0 -7 8 -8 25 -1 17 7 25 6 25 -1 0 -8 4 -8 13 0 8 6 35 12 60 13 26 2
47 5 47 8 0 3 15 5 33 6 37 1 106 12 117 19 5 3 11 -1 13 -7 4 -10 6 -10 6 0
1 6 11 12 24 12 13 0 28 5 35 12 9 9 12 9 12 -1 0 -10 4 -10 13 -3 6 5 26 13
42 16 66 11 91 17 123 27 18 6 41 12 50 14 9 2 17 4 17 5 0 1 11 3 24 6 14 2
30 9 36 14 7 5 14 8 17 5 3 -3 21 1 40 9 20 9 38 12 42 9 3 -4 6 -1 6 5 0 7 3
11 8 11 4 -1 9 -1 12 1 3 1 15 3 28 6 13 2 33 10 45 16 12 7 24 13 27 13 27 6
90 30 90 34 0 4 10 8 22 8 13 1 24 7 26 13 2 5 10 10 18 10 8 0 14 4 14 10 0
5 6 7 13 4 22 -8 42 23 27 41 -6 8 -9 19 -5 25 3 5 1 10 -5 10 -6 0 -8 4 -5
10 3 5 1 10 -5 10 -6 0 -9 4 -6 8 3 5 -2 21 -10 36 -7 16 -14 35 -14 42 0 8
-5 14 -12 14 -6 0 -9 2 -6 6 3 3 0 26 -8 51 -12 39 -12 44 1 39 8 -3 15 0 15
6 0 6 3 9 6 5 3 -3 16 3 28 14 20 19 20 21 4 33 -10 7 -15 16 -11 19 3 4 1 7
-5 7 -7 0 -12 5 -12 11 0 5 -11 26 -25 46 -13 20 -22 40 -19 45 3 4 0 8 -6 8
-6 0 -17 15 -25 34 -8 19 -19 37 -25 41 -15 10 -12 35 5 35 17 0 20 25 5 43
-26 30 -74 113 -72 124 2 7 -4 13 -13 13 -9 0 -13 5 -10 10 3 6 1 10 -5 10 -6
0 -9 4 -5 9 3 5 -2 17 -11 25 -14 15 -14 17 0 32 12 11 13 20 6 33 -5 10 -6
21 -3 25 3 3 1 6 -5 6 -6 0 -16 16 -23 35 -7 19 -17 35 -21 35 -4 0 -8 9 -8
20 0 11 -4 20 -10 20 -5 0 -10 7 -10 15 0 8 -5 15 -11 15 -5 0 -7 5 -4 10 4 6
2 16 -4 23 -5 7 -7 17 -3 23 10 15 101 76 117 78 8 1 18 5 21 9 4 4 14 7 23 7
9 1 26 9 39 20 l23 19 -23 48 c-12 26 -26 50 -30 51 -5 2 -6 7 -3 12 3 5 -2
16 -11 24 -8 9 -13 16 -9 16 3 0 -2 12 -13 28 -10 15 -29 48 -42 75 -20 39
-28 47 -51 47 -15 0 -31 -5 -34 -11 -4 -5 -12 -8 -18 -6 -6 2 -18 -4 -28 -12
-9 -9 -28 -25 -42 -36 -13 -11 -24 -22 -22 -25 1 -3 -6 -14 -16 -24 -19 -19
-19 -19 -19 3 0 12 -4 20 -8 17 -7 -4 -11 10 -14 52 -1 6 -5 12 -10 12 -4 0
-8 11 -8 24 0 13 -4 26 -10 28 -5 2 -11 15 -12 31 -1 15 -6 27 -11 27 -5 0 -7
6 -4 14 3 7 1 18 -5 24 -13 13 -21 172 -8 172 5 0 7 11 4 25 -3 15 0 25 7 25
7 0 10 3 7 6 -4 3 -2 20 3 37 12 39 20 75 22 102 1 11 16 35 34 53 18 19 33
38 33 43 0 6 4 8 9 4 6 -3 8 4 6 15 -2 11 0 20 6 20 5 0 8 3 8 8 -1 4 0 9 1
12 6 16 13 69 11 86 -1 11 -38 11 -96 -1 -16 -3 -37 -6 -45 -7 -8 0 -21 -5
-27 -11 -7 -5 -13 -6 -13 -2 0 4 -11 0 -24 -9 -24 -15 -25 -15 -21 6 3 12 12
29 21 37 14 14 15 14 8 1 -7 -13 -5 -13 8 -2 15 12 48 19 105 21 12 1 28 8 36
16 8 8 17 12 20 9 3 -3 18 3 33 13 37 23 79 63 69 63 -5 0 -1 6 8 13 9 6 18
26 21 42 2 17 5 30 7 30 1 0 3 24 4 53 1 28 -2 52 -7 52 -4 0 -8 7 -8 16 0 26
-28 46 -57 41 -33 -6 -64 -17 -78 -29 -32 -27 -79 -57 -83 -53 -9 8 29 75 42
75 7 0 23 9 36 20 13 11 27 20 32 20 4 0 8 7 8 15 0 9 7 18 15 21 8 4 15 13
15 20 0 8 6 17 13 20 11 4 16 18 19 62 1 6 5 12 9 12 5 0 4 11 -1 25 -7 17 -6
25 1 25 8 0 8 5 -1 15 -6 8 -9 19 -6 24 4 5 1 13 -5 16 -5 4 -8 13 -5 20 8 23
-5 24 -40 4 -19 -10 -34 -15 -34 -11 0 4 -5 -1 -11 -10 -5 -10 -15 -18 -22
-18 -7 0 -18 -9 -25 -20 -14 -23 -47 -28 -39 -6 3 8 1 17 -6 20 -9 3 -9 5 1 5
6 1 12 8 12 16 0 8 4 15 8 15 13 0 47 33 50 50 2 8 9 18 15 22 7 4 8 8 4 8 -4
0 -3 9 3 21 6 11 11 49 10 85 -1 89 -2 94 -12 94 -5 0 -7 4 -3 9 8 13 -36 101
-50 101 -11 0 -57 -34 -56 -42 0 -2 -3 -14 -6 -28 -4 -14 -6 -27 -6 -30 0 -3
-7 -11 -16 -18 -12 -10 -13 -12 -1 -6 12 6 13 4 3 -6 -20 -21 -40 14 -35 59 4
42 4 45 1 94 -1 20 -6 37 -11 37 -5 0 -7 4 -4 8 3 5 -1 20 -9 35 -8 15 -11 27
-7 27 4 1 -4 10 -17 20 -13 11 -20 20 -16 20 3 0 0 7 -9 15 -8 8 -20 15 -26
15 -6 0 -9 4 -6 9 3 5 -7 14 -24 19 -40 14 -51 -7 -46 -87 2 -50 1 -59 -10
-50 -8 6 -14 18 -14 25 0 8 -4 14 -9 14 -6 0 -15 27 -22 60 -6 33 -16 60 -20
60 -5 0 -9 7 -9 16 0 8 -4 12 -10 9 -5 -3 -10 -2 -10 3 0 10 -70 48 -82 44 -5
-1 -8 3 -8 8 0 7 -6 7 -19 0 -13 -6 -22 -7 -26 0 -3 5 -52 9 -115 7 -61 -1
-111 1 -113 4 -1 3 -10 -1 -19 -10z"/>
</g>
</svg>
